<mxfile host="app.diagrams.net" modified="2023-08-09T03:01:20.597Z" agent="Mozilla/5.0 (Windows NT 10.0; Win64; x64) AppleWebKit/537.36 (KHTML, like Gecko) Chrome/114.0.0.0 Safari/537.36 Edg/114.0.1823.79" version="21.6.7" etag="s7jNga5C3eIB0Yg4MR0N" type="github">
  <diagram name="第 1 页" id="8c2LUygaeAEnsMYWD_DH">
    <mxGraphModel>
      <root>
        <mxCell id="0" />
        <mxCell id="1" parent="0" />
      </root>
    </mxGraphModel>
  </diagram>
</mxfile>
